<svg id="body" xmlns="http://www.w3.org/2000/svg" viewBox="0 0 200 200"><defs><style>.cls-1{fill:#333;}.cls-2{fill:#ed0e03;}.cls-3{fill:#fff;}</style></defs><title>11OnlineFidget</title><path class="cls-1" d="M162.52,159.5a24.51,24.51,0,0,1-23.58-17.93,10.71,10.71,0,0,0-5.07-6.38l-13.07-7.54a15.43,15.43,0,0,0-7.72-2,16.59,16.59,0,0,0-4.74.7,28.65,28.65,0,0,1-8.2,1.2h-.72A28.61,28.61,0,0,1,91,126.15a14.44,14.44,0,0,0-4.39-.68,15.57,15.57,0,0,0-7.77,2.11l-12.7,7.33a10.72,10.72,0,0,0-5.07,6.38,24.5,24.5,0,1,1-23.63-31.08,24.61,24.61,0,0,1,6.26.81,9.7,9.7,0,0,0,2.47.32,10.61,10.61,0,0,0,5.29-1.45l13.12-7.57a15.58,15.58,0,0,0,7.34-9.9,28.28,28.28,0,0,1,3.6-8.59L76,83a28.32,28.32,0,0,1,4.4-5.19,15.14,15.14,0,0,0,4.71-11.13v-15a10.72,10.72,0,0,0-3-7.58A24.5,24.5,0,0,1,99.64,2.5a25.51,25.51,0,0,1,2.79.15A24.5,24.5,0,0,1,117,44.24a10.38,10.38,0,0,0-2.9,7.28V70.82a6.09,6.09,0,0,0,2.49,4.9A28.46,28.46,0,0,1,128,92.61a15.51,15.51,0,0,0,7.34,9.92l13.25,7.65a10.62,10.62,0,0,0,5.29,1.45,9.69,9.69,0,0,0,2.46-.32,24.5,24.5,0,1,1,6.21,48.2Z"/><path d="M99.63,3a25,25,0,0,1,2.74.15,24,24,0,0,1,14.31,40.74,10.88,10.88,0,0,0-3,7.64V70.82a6.61,6.61,0,0,0,2.73,5.33,27.93,27.93,0,0,1,11.11,16.58A16,16,0,0,0,135.05,103l13.25,7.65a11.12,11.12,0,0,0,5.54,1.51,10.19,10.19,0,0,0,2.59-.33,24,24,0,1,1-5.89,44,23.86,23.86,0,0,1-11.12-14.35,11.22,11.22,0,0,0-5.3-6.68l-13.07-7.54a15.94,15.94,0,0,0-8-2.11,17.07,17.07,0,0,0-4.88.72,28.14,28.14,0,0,1-8,1.17h-.77a28,28,0,0,1-8.26-1.31,14.94,14.94,0,0,0-4.54-.7,16.07,16.07,0,0,0-8,2.18l-12.7,7.33a11.22,11.22,0,0,0-5.3,6.68,24,24,0,0,1-23.1,17.57,24,24,0,1,1,6.08-47.21,10.19,10.19,0,0,0,2.59.33,11.12,11.12,0,0,0,5.54-1.51l13.12-7.57a16.08,16.08,0,0,0,7.57-10.22,27.78,27.78,0,0,1,3.54-8.45l.1-.16.09-.14.12-.19.21-.32a27.79,27.79,0,0,1,4.32-5.09,15.64,15.64,0,0,0,4.87-11.49v-15A11.22,11.22,0,0,0,82.5,43.8,24,24,0,0,1,99.63,3h0m0-1A25,25,0,0,0,81.79,44.5a10.3,10.3,0,0,1,2.85,7.23v15a14.62,14.62,0,0,1-4.55,10.76,28.75,28.75,0,0,0-4.47,5.27l-.33.52-.21.32a28.8,28.8,0,0,0-3.66,8.74,15,15,0,0,1-7.1,9.58L51.2,109.47a10.13,10.13,0,0,1-5,1.38,9.18,9.18,0,0,1-2.34-.3,25,25,0,1,0,17.72,30.88,10.3,10.3,0,0,1,4.84-6.08L79.08,128a15.08,15.08,0,0,1,7.52-2,14,14,0,0,1,4.24.65A29,29,0,0,0,99.38,128h.78a29.17,29.17,0,0,0,8.33-1.22,16.08,16.08,0,0,1,4.59-.68,14.89,14.89,0,0,1,7.47,2l13.07,7.54a10.3,10.3,0,0,1,4.84,6.08,25,25,0,1,0,17.72-30.88,9.18,9.18,0,0,1-2.34.3,10.13,10.13,0,0,1-5-1.38l-13.25-7.65a15,15,0,0,1-7.1-9.6,28.93,28.93,0,0,0-11.51-17.17l0,0a5.57,5.57,0,0,1-2.28-4.5V51.53a9.82,9.82,0,0,1,2.76-6.93A25,25,0,0,0,102.48,2.16,26,26,0,0,0,99.63,2Z"/><path class="cls-1" d="M162,149.5A14.5,14.5,0,1,1,176.5,135,14.52,14.52,0,0,1,162,149.5Z" /><path class="cls-2" d="M162,121a14,14,0,1,1-14,14,14,14,0,0,1,14-14m0-1a15,15,0,1,0,15,15,15,15,0,0,0-15-15Z" /><path class="cls-2" d="M162,122a13,13,0,1,0,13,13A13,13,0,0,0,162,122Zm0,20a7,7,0,1,1,7-7A7,7,0,0,1,162,142Z" /><path class="cls-1" d="M100,41.5A14.5,14.5,0,1,1,114.5,27,14.52,14.52,0,0,1,100,41.5Z"/><path class="cls-2" d="M100,13A14,14,0,1,1,86,27a14,14,0,0,1,14-14m0-1a15,15,0,1,0,15,15,15,15,0,0,0-15-15Z" /><path class="cls-2" d="M100,14a13,13,0,1,0,13,13A13,13,0,0,0,100,14Zm0,20a7,7,0,1,1,7-7A7,7,0,0,1,100,34Z" /><path class="cls-1" d="M38,149.5A14.5,14.5,0,1,1,52.5,135,14.52,14.52,0,0,1,38,149.5Z" /><path class="cls-2" d="M38,121a14,14,0,1,1-14,14,14,14,0,0,1,14-14m0-1a15,15,0,1,0,15,15,15,15,0,0,0-15-15Z"/><path class="cls-2" d="M38,122a13,13,0,1,0,13,13A13,13,0,0,0,38,122Zm0,20a7,7,0,1,1,7-7A7,7,0,0,1,38,142Z" /><path class="cls-1" d="M100,114.5A14.5,14.5,0,1,1,114.5,100,14.52,14.52,0,0,1,100,114.5Z" /><path class="cls-3" d="M100,86a14,14,0,1,1-14,14,14,14,0,0,1,14-14m0-1a15,15,0,1,0,15,15,15,15,0,0,0-15-15Z" /><path class="cls-3" d="M100,87a13,13,0,1,0,13,13A13,13,0,0,0,100,87Zm0,20a7,7,0,1,1,7-7A7,7,0,0,1,100,107Z" /></svg>
